# xmcd CD database file
#
# Track frame offsets:
#	150
#	4047
#	30205
#	53707
#	74567
#	94927
#	122290
#	144657
#	169715
#	189852
#	213695
#
# Disc length: 3249 seconds
#
# Revision: 0
# Processed by: cddbd v1.5.1PL0 Copyright (c) Steve Scherf et al.
# Submitted via: CDex 1.51
#
DISCID=8e0caf0b
DTITLE=move - electrock
DYEAR=1998
DGENRE=JPop
TTITLE0=World of move
TTITLE1=Bust the Future Walk(move into the rockin' beat)
TTITLE2=around the world
TTITLE3=Rage your dream
TTITLE4=Wanna fly to be wild
TTITLE5=ROCK IT DOWN
TTITLE6=BLOWIN' WIND
TTITLE7=See you,my best love
TTITLE8=over drive
TTITLE9=take me higher
TTITLE10=past days~追憶
EXTD=YEAR: 1998
EXTT0=
EXTT1=
EXTT2=
EXTT3=
EXTT4=
EXTT5=
EXTT6=
EXTT7=
EXTT8=
EXTT9=
EXTT10=
PLAYORDER=
